<?xml version="1.0" encoding="UTF-8"?>
<!DOCTYPE svg PUBLIC "-//W3C//DTD SVG 1.1//EN" "http://www.w3.org/Graphics/SVG/1.1/DTD/svg11.dtd">
<!-- Creator: CorelDRAW 2021 (64-Bit) -->
<svg xmlns="http://www.w3.org/2000/svg" xml:space="preserve" width="2.46859in" height="0.915957in" version="1.1" style="shape-rendering:geometricPrecision; text-rendering:geometricPrecision; image-rendering:optimizeQuality; fill-rule:evenodd; clip-rule:evenodd"
viewBox="0 0 368.08 136.57"
 xmlns:xlink="http://www.w3.org/1999/xlink"
 xmlns:xodm="http://www.corel.com/coreldraw/odm/2003">
 <defs>
  <style type="text/css">
   <![CDATA[
    .fil4 {fill:none}
    .fil3 {fill:none;fill-rule:nonzero}
    .fil5 {fill:black;fill-rule:nonzero}
    .fil1 {fill:#B3B3B3;fill-rule:nonzero}
    .fil2 {fill:white;fill-rule:nonzero}
    .fil0 {fill:url(#id3)}
   ]]>
  </style>
   <clipPath id="id0">
    <path d="M170.87 0l128.78 0c1.97,-0.04 3.95,0.69 5.44,2.19l60.79 60.79c2.92,2.92 2.92,7.7 0,10.61l-60.79 60.79c-1.49,1.49 -3.47,2.22 -5.43,2.19l-128.79 0c-3.76,0 -6.84,-3.08 -6.84,-6.84l0 -122.88c0,-3.76 3.08,-6.84 6.84,-6.84z"/>
   </clipPath>
    <clipPath id="id1" style="clip-rule:nonzero">
     <path d="M164.03 33.42l11.33 0 0 83.69 15.34 0 0 -83.69 16.04 0 0 -13.95 -42.71 0 0 13.95zm78.14 -13.95l-22.46 0 -15.62 97.64 14.09 0 2.65 -17.71 18.83 0 2.65 17.71 15.48 0 -15.62 -97.64zm-12 17.3l7.39 49.38 -14.79 0 7.39 -49.38zm57.89 -17.3l-23.15 0 0 97.64 24.13 0c15.34,0 23.29,-8.09 23.29,-23.15l0 -7.95c0,-10.32 -3.21,-17.71 -11.44,-20.92 6.83,-3.21 9.9,-9.62 9.9,-19.67l0 -3.49c0,-15.06 -6.83,-22.46 -22.74,-22.46zm-0.98 53.7c6.97,0 9.9,2.79 9.9,11.86l0 8.51c0,7.25 -2.79,9.62 -7.95,9.62l-8.79 0 0 -29.99 6.83 0zm0.56 -39.75c5.44,0 7.81,3.07 7.81,10.04l0 5.44c0,7.81 -3.49,10.32 -9.21,10.32l-6 0 0 -25.8 7.39 0z"/>
    </clipPath>
    <clipPath id="id2" style="clip-rule:nonzero">
     <path d="M170.87 0l128.78 0c1.97,-0.04 3.95,0.69 5.44,2.19l60.79 60.79c2.92,2.92 2.92,7.7 0,10.61l-60.79 60.79c-1.49,1.49 -3.47,2.22 -5.43,2.19l-128.79 0c-3.76,0 -6.84,-3.08 -6.84,-6.84l0 -122.88c0,-3.76 3.08,-6.84 6.84,-6.84z"/>
    </clipPath>
  <linearGradient id="id3" gradientUnits="userSpaceOnUse" x1="309.88" y1="144.83" x2="260.42" y2="-7.43">
   <stop offset="0" style="stop-opacity:1; stop-color:red"/>
   <stop offset="1" style="stop-opacity:1; stop-color:#FF6600"/>
  </linearGradient>
 </defs>
 <g id="Layer_x0020_1">
  <metadata id="CorelCorpID_0Corel-Layer"/>
  <path class="fil0" d="M170.87 0l128.78 0c1.97,-0.04 3.95,0.69 5.44,2.19l60.79 60.79c2.92,2.92 2.92,7.7 0,10.61l-60.79 60.79c-1.49,1.49 -3.47,2.22 -5.43,2.19l-128.79 0c-3.76,0 -6.84,-3.08 -6.84,-6.84l0 -122.88c0,-3.76 3.08,-6.84 6.84,-6.84z"/>
  <g style="clip-path:url(#id0)">
   <g id="_2161071422208">
    <path id="_1" class="fil1" d="M159.31 33.42l16.04 0 0 83.69 15.34 0 0 -83.69 16.04 0 0 -13.95 -47.42 0 0 13.95zm82.85 -13.95l-22.46 0 -15.62 97.64 14.09 0 2.65 -17.71 18.83 0 2.65 17.71 15.48 0 -15.62 -97.64zm-12 17.3l7.39 49.38 -14.79 0 7.39 -49.38zm57.89 -17.3l-23.15 0 0 97.64 24.13 0c15.34,0 23.29,-8.09 23.29,-23.15l0 -7.95c0,-10.32 -3.21,-17.71 -11.44,-20.92 6.83,-3.21 9.9,-9.62 9.9,-19.67l0 -3.49c0,-15.06 -6.83,-22.46 -22.74,-22.46l0 0zm-0.98 53.7c6.97,0 9.9,2.79 9.9,11.86l0 8.51c0,7.25 -2.79,9.62 -7.95,9.62l-8.79 0 0 -29.99 6.83 0zm0.56 -39.75c5.44,0 7.81,3.07 7.81,10.04l0 5.44c0,7.81 -3.49,10.32 -9.21,10.32l-6 0 0 -25.8 7.39 0z"/>
   </g>
   <g style="clip-path:url(#id1)">
    <g>
     <path id="_2" class="fil2" d="M157.22 38.13l16.04 0 0 77.73 15.34 0 0 -83.69 16.04 0 0 -13.95 -47.42 0 0 19.91zm82.85 -19.91l-22.46 0 -15.62 97.64 14.09 0 2.65 -17.71 18.83 0 2.65 17.71 15.48 0 -15.62 -97.64zm-12 17.3l7.39 50.63 -14.79 0 7.39 -50.63zm57.89 -17.3l-23.15 0 0 97.64 24.13 0c15.34,0 23.29,-8.09 23.29,-23.15l0 -7.95c0,-10.32 -3.21,-17.71 -11.44,-20.92 6.83,-3.21 9.9,-9.62 9.9,-19.67l0 -3.49c0,-15.06 -6.83,-22.46 -22.74,-22.46l0 0zm-0.98 53.7c6.97,0 9.9,2.79 9.9,11.86l0 8.51c0,7.25 -2.79,10.88 -7.95,10.88l-8.79 0 0 -31.24 6.83 0zm0.56 -39.75c5.44,0 7.81,3.07 7.81,10.04l0 5.44c0,7.81 -3.49,11.58 -9.21,11.58l-6 0 0 -27.06 7.39 0z"/>
    </g>
   </g>
   <g style="clip-path:url(#id2)">
    <path class="fil3" d="M159.31 33.42l16.04 0 0 83.69 15.34 0 0 -83.69 16.04 0 0 -13.95 -47.42 0 0 13.95zm82.85 -13.95l-22.46 0 -15.62 97.64 14.09 0 2.65 -17.71 18.83 0 2.65 17.71 15.48 0 -15.62 -97.64zm-12 17.3l7.39 49.38 -14.79 0 7.39 -49.38zm57.89 -17.3l-23.15 0 0 97.64 24.13 0c15.34,0 23.29,-8.09 23.29,-23.15l0 -7.95c0,-10.32 -3.21,-17.71 -11.44,-20.92 6.83,-3.21 9.9,-9.62 9.9,-19.67l0 -3.49c0,-15.06 -6.83,-22.46 -22.74,-22.46l0 0zm-0.98 53.7c6.97,0 9.9,2.79 9.9,11.86l0 8.51c0,7.25 -2.79,9.62 -7.95,9.62l-8.79 0 0 -29.99 6.83 0zm0.56 -39.75c5.44,0 7.81,3.07 7.81,10.04l0 5.44c0,7.81 -3.49,10.32 -9.21,10.32l-6 0 0 -25.8 7.39 0z"/>
   </g>
  </g>
  <path class="fil4" d="M170.87 0l128.78 0c1.97,-0.04 3.95,0.69 5.44,2.19l60.79 60.79c2.92,2.92 2.92,7.7 0,10.61l-60.79 60.79c-1.49,1.49 -3.47,2.22 -5.43,2.19l-128.79 0c-3.76,0 -6.84,-3.08 -6.84,-6.84l0 -122.88c0,-3.76 3.08,-6.84 6.84,-6.84z"/>
  <path class="fil5" d="M15.35 41.92c0,-6.98 3.07,-9.63 7.95,-9.63 4.88,0 7.95,2.65 7.95,9.63l0 52.74c0,6.98 -3.07,9.63 -7.95,9.63 -4.88,0 -7.95,-2.65 -7.95,-9.63l0 -52.74zm-15.35 51.76c0,15.63 8.23,24.56 23.3,24.56 15.07,0 23.3,-8.93 23.3,-24.56l0 -50.78c0,-15.63 -8.23,-24.56 -23.3,-24.56 -15.07,0 -23.3,8.93 -23.3,24.56l0 50.78z"/>
  <polygon id="_1_0" class="fil5" points="89.29,117.12 105.06,117.12 105.06,19.46 91.39,19.46 91.39,77.91 75.62,19.46 56.37,19.46 56.37,117.12 70.18,117.12 70.18,46.38 "/>
  <polygon id="_2_1" class="fil5" points="131.43,33.41 157.94,33.41 157.94,19.46 116.08,19.46 116.08,117.12 157.94,117.12 157.94,103.17 131.43,103.17 131.43,74.57 152.5,74.57 152.5,60.61 131.43,60.61 "/>
 </g>
</svg>
